<svg width="320" height="380" viewBox="0 0 320 380" xmlns="http://www.w3.org/2000/svg">
  <defs>
    <linearGradient id="shieldGrad" x1="0" y1="0" x2="0" y2="1">
      <stop offset="0%" stop-color="#263548"/>
      <stop offset="100%" stop-color="#111827"/>
    </linearGradient>
  </defs>

  <!-- Escudo fondo -->
  <path d="M160 25 L285 95 L260 270 Q160 355 60 270 L35 95 Z"
        fill="url(#shieldGrad)"
        stroke="#2cb232"
        stroke-width="9"
        stroke-linejoin="round"/>

  <!-- Borde interior sutil -->
  <path d="M160 25 L285 95 L260 270 Q160 355 60 270 L35 95 Z"
        fill="none"
        stroke="#4ade80"
        stroke-width="2.5"
        stroke-linejoin="round"
        opacity="0.2"/>

  <!-- { -->
  <path transform="translate(25.166,221.768) scale(0.068359,-0.068359)" fill="#6b7280"
        d="M1202 -109V-334H985Q767 -334 667.0 -246.0Q567 -158 567 35V227Q567 377 513.0 435.5Q459 494 317 494H256V717H317Q459 717 513.0 775.0Q567 833 567 983V1188Q567 1381 667.0 1468.5Q767 1556 985 1556H1202V1331H1133Q992 1331 949.5 1287.5Q907 1244 907 1102V936Q907 779 862.0 708.0Q817 637 707 612Q818 585 862.5 514.0Q907 443 907 287V121Q907 -22 949.5 -65.5Q992 -109 1133 -109Z" />

  <!-- } -->
  <path transform="translate(195.166,221.768) scale(0.068359,-0.068359)" fill="#6b7280"
        d="M256 -109H326Q466 -109 508.5 -65.5Q551 -22 551 121V287Q551 443 596.0 514.0Q641 585 752 612Q641 637 596.0 708.0Q551 779 551 936V1102Q551 1244 508.5 1287.5Q466 1331 326 1331H256V1556H473Q691 1556 791.0 1468.5Q891 1381 891 1188V983Q891 833 945.0 775.0Q999 717 1141 717H1202V494H1141Q999 494 945.0 435.5Q891 377 891 227V35Q891 -158 791.0 -246.0Q691 -334 473 -334H256Z" />

  <!-- A (encima de todo) -->
  <path transform="translate(94.216,246.965) scale(0.083008,-0.083008)" fill="#22c55e"
        d="M1094 272H492L397 0H10L563 1493H1022L1575 0H1188ZM588 549H997L793 1143Z" />

</svg>